<svg width="50" height="50" viewBox="0 0 50 50" fill="none" xmlns="http://www.w3.org/2000/svg">
<path d="M35.9375 18.75C35.9375 19.9932 35.4436 21.1855 34.5646 22.0646C33.6855 22.9436 32.4932 23.4375 31.25 23.4375C30.0068 23.4375 28.8145 22.9436 27.9354 22.0646C27.0564 21.1855 26.5625 19.9932 26.5625 18.75C26.5625 17.5068 27.0564 16.3145 27.9354 15.4354C28.8145 14.5564 30.0068 14.0625 31.25 14.0625C32.4932 14.0625 33.6855 14.5564 34.5646 15.4354C35.4436 16.3145 35.9375 17.5068 35.9375 18.75Z" stroke="#EED49F" stroke-width="2.3125" stroke-linecap="round" stroke-linejoin="round"/>
<path d="M23.4375 42.1875L34.375 31.25C35.9375 29.6875 39.0625 29.6875 40.625 31.25L45.3125 35.9375" stroke="#A6DA95" stroke-width="2.3125" stroke-linecap="round" stroke-linejoin="round"/>
<path d="M4.6875 29.6875L10.9375 23.4375C12.5 21.875 15.625 21.875 17.1875 23.4375L29.6875 35.9375" stroke="#A6DA95" stroke-width="2.3125" stroke-linecap="round" stroke-linejoin="round"/>
<path d="M9.375 7.8125H40.625C43.2187 7.8125 45.3125 9.90625 45.3125 12.5V37.5C45.3125 40.0937 43.2187 42.1875 40.625 42.1875H9.375C8.1318 42.1875 6.93951 41.6936 6.06044 40.8146C5.18136 39.9355 4.6875 38.7432 4.6875 37.5V12.5C4.6875 9.90625 6.78125 7.8125 9.375 7.8125Z" stroke="#7DC4E4" stroke-width="2.3125" stroke-linecap="round" stroke-linejoin="round"/>
</svg>
