<svg width="50" height="50" viewBox="0 0 50 50" fill="none" xmlns="http://www.w3.org/2000/svg">
<path d="M45.1714 5.02578C42.4866 2.34101 39.4236 1.05107 38.3301 2.14463L30.9355 9.53916L40.658 19.2616L48.0525 11.8671C49.1461 10.7735 47.8562 7.71064 45.1714 5.02578Z" fill="#FF6E83"/>
<path d="M40.4841 9.71308C37.4209 6.6499 33.9264 5.17822 32.6787 6.42588L25.1064 13.9981L36.199 25.0908L43.7713 17.5186C45.0189 16.2709 43.5473 12.7763 40.4841 9.71308Z" fill="#BFBCAF"/>
<path d="M11.2837 43.9433L4.61426 46.844C4.12891 47.0552 3.56426 46.8328 3.35322 46.3475C3.30103 46.2268 3.27411 46.0967 3.27411 45.9652C3.27411 45.8338 3.30103 45.7037 3.35322 45.583L6.2541 38.9136C7.09609 36.9777 9.34795 36.091 11.2838 36.933C13.2196 37.775 14.1063 40.0269 13.2644 41.9627C12.8638 42.8835 12.1364 43.5703 11.2837 43.9433Z" fill="#2B2622"/>
<path d="M39.3961 21.8706C39.4033 21.8605 39.4103 21.8503 39.4172 21.8398C40.3792 20.4612 38.9071 17.1427 35.9809 14.2164C33.0545 11.29 29.7358 9.81807 28.3573 10.7802C28.3471 10.7869 28.337 10.7939 28.3269 10.801C28.3145 10.8102 28.3017 10.8189 28.2895 10.8284C28.2556 10.8546 28.2224 10.8822 28.1912 10.9134L28.1755 10.9291H28.1754L10.5935 28.5111C10.5935 28.5111 5.61513 40.8307 7.49091 42.7063C9.36669 44.582 21.6861 39.6038 21.6861 39.6038L39.2838 22.0062C39.3149 21.975 39.3427 21.9418 39.3688 21.9077C39.3783 21.8957 39.3869 21.8829 39.3961 21.8706Z" fill="#FFD469"/>
<path d="M10.5935 28.5111L10.2026 30.9467C10.1451 31.3049 10.4554 31.6142 10.8134 31.5558L12.5588 31.2707C12.9035 31.2145 13.2079 31.5001 13.1736 31.8477L12.9793 33.8178C12.9452 34.1637 13.2466 34.4487 13.5899 34.3954L15.3539 34.1218C15.7146 34.0658 16.0231 34.3815 15.9589 34.7408L15.6571 36.4285C15.595 36.7761 15.8826 37.0866 16.2339 37.0512L18.2192 36.851C18.5542 36.8172 18.8358 37.0992 18.8016 37.4341L18.5969 39.437C18.5616 39.7816 18.8602 40.0674 19.2029 40.0172L21.7294 39.6471L7.49112 45.605C8.62696 44.4691 5.68594 41.528 4.55 42.6639L10.5935 28.5111Z" fill="#E5AA6E"/>
<path d="M14.2473 29.1546C14.1161 29.1546 13.9879 29.1157 13.8789 29.0428C13.7699 28.97 13.6849 28.8664 13.6347 28.7452C13.5845 28.6241 13.5714 28.4908 13.597 28.3622C13.6225 28.2335 13.6857 28.1154 13.7784 28.0227L28.4616 13.3395C28.586 13.2154 28.7546 13.1458 28.9303 13.1459C29.106 13.1461 29.2745 13.2159 29.3987 13.3402C29.5229 13.4644 29.5928 13.6329 29.5929 13.8086C29.593 13.9843 29.5234 14.1528 29.3993 14.2772L14.7161 28.9603C14.6546 29.022 14.5815 29.0709 14.5011 29.1042C14.4206 29.1376 14.3344 29.1547 14.2473 29.1546ZM18.4671 32.7113L33.1502 18.0281C33.2119 17.9666 33.2609 17.8935 33.2943 17.813C33.3278 17.7325 33.345 17.6462 33.3451 17.5591C33.3452 17.4719 33.3281 17.3856 33.2947 17.3051C33.2614 17.2245 33.2125 17.1513 33.1509 17.0897C33.0893 17.0281 33.0161 16.9792 32.9356 16.9459C32.8551 16.9125 32.7687 16.8954 32.6816 16.8955C32.5944 16.8955 32.5081 16.9128 32.4276 16.9462C32.3472 16.9796 32.274 17.0286 32.2125 17.0903L17.5293 31.7736C17.4052 31.8981 17.3356 32.0666 17.3358 32.2423C17.3359 32.418 17.4058 32.5865 17.53 32.7107C17.6543 32.8349 17.8227 32.9048 17.9984 32.9049C18.1741 32.905 18.3427 32.8354 18.4671 32.7113ZM22.2181 36.4622L36.9012 21.7791C36.9629 21.7176 37.0119 21.6445 37.0453 21.564C37.0788 21.4835 37.096 21.3972 37.0961 21.31C37.0962 21.2229 37.079 21.1366 37.0457 21.056C37.0124 20.9755 36.9635 20.9023 36.9019 20.8407C36.8403 20.779 36.7671 20.7302 36.6866 20.6968C36.606 20.6635 36.5197 20.6464 36.4326 20.6464C36.3454 20.6465 36.2591 20.6637 36.1786 20.6972C36.0981 20.7306 36.025 20.7796 35.9635 20.8413L21.2803 35.5245C21.1562 35.6489 21.0866 35.8175 21.0868 35.9932C21.0869 36.1689 21.1568 36.3373 21.281 36.4616C21.4052 36.5858 21.5737 36.6556 21.7494 36.6558C21.9251 36.6559 22.0937 36.5863 22.2181 36.4622Z" fill="#FFB636"/>
</svg>
