<svg width="45" height="40" viewBox="0 0 45 40" fill="none" xmlns="http://www.w3.org/2000/svg">
<path opacity="0.2" d="M43.2 24V36.8C43.2 37.2243 43.0314 37.6313 42.7314 37.9314C42.4313 38.2314 42.0243 38.4 41.6 38.4H3.2C2.77565 38.4 2.36869 38.2314 2.06863 37.9314C1.76857 37.6313 1.6 37.2243 1.6 36.8V24C1.6 23.5757 1.76857 23.1687 2.06863 22.8686C2.36869 22.5686 2.77565 22.4 3.2 22.4H41.6C42.0243 22.4 42.4313 22.5686 42.7314 22.8686C43.0314 23.1687 43.2 23.5757 43.2 24Z" fill="#FFD469"/>
<path d="M44.8 24V36.8C44.8 37.6487 44.4629 38.4626 43.8627 39.0627C43.2626 39.6629 42.4487 40 41.6 40H3.2C2.35131 40 1.53737 39.6629 0.937258 39.0627C0.337142 38.4626 0 37.6487 0 36.8V24C0 23.1513 0.337142 22.3374 0.937258 21.7373C1.53737 21.1371 2.35131 20.8 3.2 20.8H11.2C11.6243 20.8 12.0313 20.9686 12.3314 21.2686C12.6314 21.5687 12.8 21.9757 12.8 22.4C12.8 22.8243 12.6314 23.2313 12.3314 23.5314C12.0313 23.8314 11.6243 24 11.2 24H3.2V36.8H41.6V24H33.6C33.1757 24 32.7687 23.8314 32.4686 23.5314C32.1686 23.2313 32 22.8243 32 22.4C32 21.9757 32.1686 21.5687 32.4686 21.2686C32.7687 20.9686 33.1757 20.8 33.6 20.8H41.6C42.4487 20.8 43.2626 21.1371 43.8627 21.7373C44.4629 22.3374 44.8 23.1513 44.8 24ZM21.268 23.532C21.4166 23.6808 21.5931 23.7988 21.7873 23.8793C21.9815 23.9598 22.1897 24.0013 22.4 24.0013C22.6103 24.0013 22.8185 23.9598 23.0127 23.8793C23.2069 23.7988 23.3834 23.6808 23.532 23.532L33.132 13.932C33.4322 13.6318 33.6009 13.2246 33.6009 12.8C33.6009 12.3754 33.4322 11.9682 33.132 11.668C32.8318 11.3678 32.4246 11.1991 32 11.1991C31.5754 11.1991 31.1682 11.3678 30.868 11.668L24 18.538V1.6C24 1.17565 23.8314 0.768687 23.5314 0.468629C23.2313 0.168571 22.8243 0 22.4 0C21.9757 0 21.5687 0.168571 21.2686 0.468629C20.9686 0.768687 20.8 1.17565 20.8 1.6V18.538L13.932 11.668C13.6318 11.3678 13.2246 11.1991 12.8 11.1991C12.3754 11.1991 11.9682 11.3678 11.668 11.668C11.3678 11.9682 11.1991 12.3754 11.1991 12.8C11.1991 13.2246 11.3678 13.6318 11.668 13.932L21.268 23.532ZM36.8 30.4C36.8 29.9253 36.6592 29.4613 36.3955 29.0666C36.1318 28.672 35.757 28.3643 35.3184 28.1827C34.8799 28.001 34.3973 27.9535 33.9318 28.0461C33.4662 28.1387 33.0386 28.3673 32.7029 28.7029C32.3673 29.0386 32.1387 29.4662 32.0461 29.9318C31.9535 30.3973 32.001 30.8799 32.1827 31.3184C32.3643 31.757 32.672 32.1318 33.0666 32.3955C33.4613 32.6592 33.9253 32.8 34.4 32.8C35.0365 32.8 35.647 32.5471 36.0971 32.0971C36.5471 31.647 36.8 31.0365 36.8 30.4Z" fill="#FF6E83"/>
</svg>
