<svg width="50" height="50" viewBox="0 0 50 50" fill="none" xmlns="http://www.w3.org/2000/svg">
<path d="M12.1 20.025L14.9167 18.1021C15.1405 17.9489 15.3926 17.8419 15.6582 17.7873C15.9239 17.7326 16.1977 17.7315 16.4638 17.7838C16.7299 17.8362 16.9829 17.941 17.208 18.0923C17.4332 18.2435 17.6259 18.438 17.775 18.6646C18.0792 19.1233 18.1915 19.6829 18.0879 20.2235C17.9843 20.764 17.673 21.2425 17.2208 21.5562L10.3937 26.2167C10.1699 26.3698 9.91784 26.4768 9.6522 26.5315C9.38656 26.5861 9.1127 26.5873 8.8466 26.5349C8.58051 26.4826 8.32751 26.3777 8.10239 26.2265C7.87726 26.0753 7.68452 25.8807 7.53542 25.6542L2.93125 18.7458C2.62481 18.2874 2.51116 17.7268 2.61487 17.1853C2.71857 16.6438 3.03131 16.1648 3.48542 15.8521C3.70924 15.6989 3.96133 15.5919 4.22697 15.5373C4.4926 15.4826 4.76647 15.4815 5.03256 15.5338C5.29866 15.5862 5.55166 15.691 5.77678 15.8423C6.00191 15.9935 6.19465 16.188 6.34375 16.4146L8.09167 19.0375C10.625 10.4375 18.5 4.16666 27.8229 4.16666C39.1937 4.16666 48.4104 13.4937 48.4104 25C48.4104 36.5062 39.1937 45.8333 27.8229 45.8333C27.551 45.8317 27.282 45.7765 27.0314 45.6709C26.7808 45.5653 26.5534 45.4114 26.3623 45.218C26.1711 45.0245 26.02 44.7953 25.9174 44.5434C25.8149 44.2915 25.7629 44.0219 25.7646 43.75C25.7646 42.6 26.6875 41.6667 27.8229 41.6667C36.9187 41.6667 44.2937 34.2042 44.2937 25C44.2937 15.7958 36.9187 8.33333 27.8229 8.33333C20.4396 8.33333 14.1917 13.25 12.1 20.025Z" fill="#FFD469"/>
</svg>
