<svg width="50" height="50" viewBox="0 0 50 50" fill="none" xmlns="http://www.w3.org/2000/svg">
<path d="M37.7708 25L40.3958 22.375C41.3125 21.4583 42.4792 20.9583 43.75 20.8333V18.75L31.25 6.25H10.4167C8.10417 6.25 6.25 8.10417 6.25 10.4167V39.5833C6.25 40.6884 6.68899 41.7482 7.47039 42.5296C8.25179 43.311 9.3116 43.75 10.4167 43.75H22.9167V39.8542L23.1875 39.5833H10.4167V10.4167H25V25H37.7708ZM29.1667 9.375L40.625 20.8333H29.1667V9.375ZM39.8542 28.8125L44.1042 33.0625L31.3333 45.8333H27.0833V41.5833L39.8542 28.8125ZM47.6042 29.5625L45.5625 31.6042L41.3125 27.3542L43.3542 25.3125C43.75 24.8958 44.4375 24.8958 44.8542 25.3125L47.6042 28.0625C48.0208 28.4792 48.0208 29.1667 47.6042 29.5625Z" fill="#A6DA95"/>
</svg>
