<svg width="50" height="50" viewBox="0 0 50 50" fill="none" xmlns="http://www.w3.org/2000/svg">
<path d="M38.2583 38.2583C36.078 40.4386 33.3936 42.0476 30.4429 42.9427C27.4923 43.8377 24.3664 43.9913 21.3422 43.3897C18.318 42.7882 15.4888 41.4501 13.1053 39.4939C10.7217 37.5378 8.85742 35.0241 7.67743 32.1753C6.49745 29.3266 6.03822 26.2308 6.34045 23.1622C6.64267 20.0936 7.697 17.1469 9.41006 14.5831C11.1231 12.0193 13.442 9.91758 16.1614 8.46404C18.8807 7.01049 21.9166 6.25003 25 6.25C33.4542 6.25 38.5792 11.8854 43.75 17.7083" stroke="#A6DA95" stroke-width="3.31" stroke-linecap="round" stroke-linejoin="round"/>
<path d="M43.75 9.375V17.7083H35.4167" stroke="#A6DA95" stroke-width="3.31" stroke-linecap="round" stroke-linejoin="round"/>
</svg>
