<svg width="50" height="50" viewBox="0 0 50 50" fill="none" xmlns="http://www.w3.org/2000/svg">
<path opacity="0.5" d="M31.15 6.25C28.9896 6.25 27.25 7.98958 23.7708 11.4688L13.5417 21.6979L28.3021 36.4583L38.5312 26.2292C42.0104 22.75 43.75 21.0104 43.75 18.85C43.75 16.6875 42.0104 14.9479 38.5312 11.4688C35.0521 7.98958 33.3125 6.25 31.15 6.25Z" fill="#C7C7C7"/>
<path d="M28.3021 36.4583L13.5417 21.6979L11.4688 23.7708C7.98958 27.25 6.25 28.9896 6.25 31.15C6.25 33.3125 7.98958 35.0521 11.4688 38.5313C14.9479 42.0104 16.6875 43.75 18.85 43.75C21.0104 43.75 22.75 42.0104 26.2292 38.5313L28.3021 36.4583Z" fill="#545454"/>
<path opacity="0.5" d="M18.8812 43.75C20.5396 43.7375 21.9562 42.6958 24.1104 40.625H43.75C44.1644 40.625 44.5618 40.7896 44.8549 41.0826C45.1479 41.3757 45.3125 41.7731 45.3125 42.1875C45.3125 42.6019 45.1479 42.9993 44.8549 43.2924C44.5618 43.5854 44.1644 43.75 43.75 43.75H18.8812Z" fill="#545454"/>
</svg>
